<svg width="300" height="62" viewBox="0 0 300 62" fill="none" xmlns="http://www.w3.org/2000/svg">
<path d="M159.684 13.3105C158.913 10.5952 157.563 8.21231 155.461 6.26661C153.576 4.51794 151.352 3.33882 148.915 2.51374C145.463 1.34693 141.886 0.946709 138.268 0.845114C135.211 0.755833 132.163 0.906687 129.143 1.41466C126.547 1.84875 124.038 2.55684 121.701 3.77598C118.681 5.35533 116.379 7.61813 114.935 10.6845C113.889 12.9072 113.385 15.2562 113.219 17.6853C113.027 20.4592 113.15 23.2115 113.839 25.9207C114.656 29.1532 116.247 31.9302 118.869 34.0883C121.156 35.9724 123.821 37.0962 126.681 37.8196C130.008 38.6663 133.403 38.9156 136.648 38.931C139.042 38.9218 141.25 38.8017 143.446 38.4939C146.168 38.1121 148.805 37.4564 151.286 36.268C154.888 34.5409 157.532 31.9148 159.042 28.2297C159.922 26.0777 160.332 23.8334 160.464 21.5274C160.62 18.7505 160.445 16.0044 159.684 13.3105ZM150.352 23.7041C149.588 26.7919 147.58 28.79 144.561 29.8429C142.926 30.4155 141.231 30.6803 139.505 30.8126C138.606 30.8834 137.707 30.9019 136.805 30.9019C134.349 30.9019 131.915 30.7264 129.551 30.003C125.817 28.8608 123.652 26.4009 123.07 22.6019C122.735 20.4284 122.75 18.2641 123.255 16.1213C123.984 13.0027 125.955 10.9708 128.999 9.91172C130.684 9.3237 132.432 9.05894 134.205 8.93579C135.981 8.81572 137.757 8.80957 139.53 8.94503C141.629 9.10204 143.69 9.44377 145.623 10.3212C148.128 11.4572 149.707 13.3536 150.352 15.9674C150.988 18.5381 150.988 21.1334 150.352 23.7041Z" fill="#1F1F1D"/>
<path d="M136.802 48.2655H132.398V61.0234H136.802C140.589 61.0234 143.098 58.4712 143.098 54.6783C143.098 50.8854 140.589 48.2655 136.802 48.2655ZM136.695 59.9366H133.732V49.3492H136.695C139.712 49.3492 141.713 51.4703 141.713 54.6783C141.713 57.8862 139.712 59.9366 136.695 59.9366Z" fill="#707071"/>
<path d="M147.132 59.9366V55.057H153.359V53.9702H147.132V49.3492H153.798V48.2655H145.798V61.0234H153.955V59.9366H147.132Z" fill="#707071"/>
<path d="M158.096 59.9366V48.2655H156.761V61.0234H164.235V59.9366H158.096Z" fill="#707071"/>
<path d="M166.252 48.2655V61.0234H167.583V48.2655H166.252Z" fill="#707071"/>
<path d="M180.636 48.2655L175.74 59.4533L170.847 48.2655H169.41L175.11 61.0234H176.373L182.055 48.2655H180.636Z" fill="#707071"/>
<path d="M185.231 59.9366V55.057H191.458V53.9702H185.231V49.3492H191.897V48.2655H183.897V61.0234H192.053V59.9366H185.231Z" fill="#707071"/>
<path d="M201.228 55.5926C202.948 55.0908 204 53.7824 204 52.0399C204 49.7648 202.28 48.2655 199.649 48.2655H194.86V61.0234H196.194V55.8143H199.878L203.333 61.0234H204.912L201.228 55.5926ZM199.474 54.7306H196.194V49.3492H199.474C201.369 49.3492 202.616 50.4205 202.616 52.0399C202.616 53.6593 201.35 54.7306 199.474 54.7306Z" fill="#707071"/>
<path d="M214.612 48.2655L210.612 54.6783L206.578 48.2655H205.121L209.93 55.8513V61.0234H211.261V55.8513L216.069 48.2655H214.612Z" fill="#707071"/>
<path d="M231.27 49.814L231.552 48.2932H223.164L220.858 61.0819H229.406L229.688 59.561H223.004L223.762 55.3463H229.776L230.055 53.8255H224.025L224.746 49.814H231.27Z" fill="#707071"/>
<path d="M243.859 48.2932H241.748L237.616 53.0651L235.208 48.2932H233.009L236.298 54.5151L230.371 61.0819H232.482L237.071 55.8636L239.796 61.0819H241.995L238.409 54.4104L243.859 48.2932Z" fill="#707071"/>
<path d="M250.857 48.2932H245.933L243.627 61.0819H245.494L246.337 56.4331H249.45C252.385 56.4331 254.637 54.4104 254.637 51.6119C254.637 49.5893 253.193 48.2932 250.857 48.2932ZM249.45 54.9123H246.6L247.514 49.814H250.468C251.875 49.814 252.702 50.5744 252.702 51.769C252.702 53.5484 251.348 54.9123 249.45 54.9123Z" fill="#707071"/>
<path d="M266.418 51.5596C266.418 49.5739 264.958 48.2932 262.565 48.2932H257.519L255.217 61.0819H257.081L257.977 56.1068H261.212L263.552 61.0819H265.695L263.11 55.8112C265.046 55.1893 266.418 53.65 266.418 51.5596ZM261.125 54.5859H258.258L259.101 49.814H262.18C263.64 49.814 264.482 50.5406 264.482 51.732C264.482 53.3391 263.198 54.5859 261.125 54.5859Z" fill="#707071"/>
<path d="M278.142 49.814L278.424 48.2932H270.039L267.734 61.0819H276.279L276.561 59.561H269.879L270.634 55.3463H276.648L276.93 53.8255H270.9L271.621 49.814H278.142Z" fill="#707071"/>
<path d="M284.667 53.8409L283.875 53.6007C282.697 53.2529 281.767 52.8557 281.767 51.9044C281.767 50.5929 283.189 49.6416 284.965 49.6416C286.249 49.6416 287.233 50.0234 288.025 50.833L289.009 49.6231C288.06 48.6749 286.775 48.1208 285.018 48.1208C282.099 48.1208 279.796 49.814 279.796 52.32C279.796 53.9794 281.168 54.7398 282.838 55.2417L283.612 55.4664C285.159 55.9498 286.23 56.4331 286.23 57.4521C286.23 58.8375 284.683 59.7334 282.785 59.7334C281.554 59.7334 280.36 59.4409 279.408 58.4896L278.565 59.6657C279.446 60.7032 280.993 61.2543 282.769 61.2543C285.738 61.2543 288.185 59.6318 288.185 57.1412C288.185 55.2078 286.356 54.3427 284.667 53.8409Z" fill="#707071"/>
<path d="M295.655 53.8409L294.863 53.6007C293.685 53.2529 292.755 52.8557 292.755 51.9044C292.755 50.5929 294.18 49.6416 295.953 49.6416C297.237 49.6416 298.224 50.0234 299.013 50.833L300 49.6231C299.051 48.6749 297.767 48.1208 296.006 48.1208C293.087 48.1208 290.785 49.814 290.785 52.32C290.785 53.9794 292.157 54.7398 293.826 55.2417L294.6 55.4664C296.147 55.9498 297.222 56.4331 297.222 57.4521C297.222 58.8375 295.674 59.7334 293.773 59.7334C292.542 59.7334 291.348 59.4409 290.396 58.4896L289.554 59.6657C290.434 60.7032 291.981 61.2543 293.757 61.2543C296.727 61.2543 299.173 59.6318 299.173 57.1412C299.173 55.2078 297.344 54.3427 295.655 53.8409Z" fill="#707071"/>
<path d="M73.0399 0.774292V38.7771H82.8755V26.8689H110.089V18.5966H82.8379V8.92962H113.287V0.774292H73.0399Z" fill="#1F1F1D"/>
<path d="M162.85 0.820496V13.7816H172.467V8.98814H190.8C190.8 8.98814 197.099 8.51711 197.099 14.5482C197.099 20.5792 191.821 20.3853 191.821 20.3853H162.85V38.931H172.489V28.6761H188.063L194.18 38.931H205.516L198.578 27.4785C198.578 27.4785 206.735 25.1202 206.735 14.4096C206.738 0.820496 193.222 0.820496 193.222 0.820496H162.85Z" fill="#1F1F1D"/>
<path d="M208.257 0.820496V9.00661H236.689L208.257 30.6218V38.931H250.725V30.6218H222.133L250.725 9.00661V0.820496H208.257Z" fill="#EA5D25"/>
<path d="M253.444 38.931H264.16L276.235 8.02452L288.633 38.931H299.348L282.794 0.820496H269.717L253.444 38.931Z" fill="#EA5D25"/>
<path d="M70.1676 0.774292V38.7063H69.7322L55.2796 38.7032C55.2827 35.9109 55.2858 30.6864 55.2858 28.3128V27.8725C55.0634 27.9649 54.9569 28.1496 54.8222 28.2912C50.8222 32.4443 46.0924 35.5537 40.7298 37.7396C37.3281 39.125 33.8011 40.067 30.1551 40.5688C30.083 40.5781 30.011 40.6089 29.9421 40.6304H17.4628C16.3947 40.4334 15.3234 40.2579 14.2616 40.0332C9.22161 38.9618 4.55442 37.0099 0.222396 34.2699C0.140955 34.2176 0.0626468 34.1591 0 34.039C0.25372 34.0914 0.507439 34.1468 0.764291 34.196C1.03367 34.2515 1.30305 34.3038 1.57244 34.3561C4.18168 34.858 6.81284 35.1289 9.47533 35.1812C14.3587 35.2767 19.1292 34.6086 23.7807 33.1524C29.7948 31.2652 35.148 28.2512 39.6993 23.9288C42.0987 21.6506 44.2944 19.1938 46.1551 16.4661C46.7189 15.638 47.1825 14.7513 47.5991 13.837C47.4612 13.7261 47.3046 13.7816 47.1637 13.7816C40.9366 13.7785 28.4855 13.7846 28.4855 13.7846H28.0532L28.0564 0.774292L70.1676 0.774292Z" fill="#EA5E25"/>
</svg>
