<svg width="226" height="46" viewBox="0 0 226 46" fill="none" xmlns="http://www.w3.org/2000/svg">
<path d="M120.263 9.96243C119.685 7.92591 118.672 6.13875 117.096 4.67948C115.682 3.36797 114.014 2.48363 112.186 1.86483C109.597 0.989722 106.914 0.689554 104.201 0.613358C101.908 0.546397 99.6222 0.659538 97.3575 1.04052C95.41 1.36609 93.5282 1.89715 91.7757 2.81151C89.511 3.99602 87.7843 5.69312 86.7013 7.99287C85.9166 9.65995 85.5384 11.4217 85.4139 13.2435C85.2706 15.3239 85.3622 17.3881 85.879 19.42C86.4922 21.8445 87.6856 23.9272 89.6519 25.5458C91.3669 26.9589 93.3661 27.8016 95.511 28.3442C98.0059 28.9792 100.552 29.1662 102.986 29.1778C104.781 29.1709 106.437 29.0808 108.084 28.8499C110.126 28.5636 112.104 28.0718 113.964 27.1805C116.666 25.8852 118.649 23.9156 119.781 21.1518C120.441 19.5378 120.749 17.8545 120.848 16.1251C120.965 14.0424 120.834 11.9828 120.263 9.96243ZM113.264 17.7576C112.691 20.0735 111.185 21.572 108.921 22.3617C107.694 22.7911 106.423 22.9897 105.129 23.089C104.455 23.1421 103.78 23.156 103.104 23.156C101.262 23.156 99.4366 23.0244 97.6629 22.4817C94.8626 21.6251 93.2392 19.7802 92.8023 16.9309C92.5509 15.3008 92.5627 13.6776 92.9409 12.0705C93.4883 9.73153 94.9659 8.2076 97.2494 7.41331C98.5133 6.9723 99.8242 6.77373 101.154 6.68137C102.486 6.59132 103.818 6.5867 105.148 6.68829C106.722 6.80605 108.267 7.06235 109.717 7.72041C111.596 8.57242 112.78 9.99476 113.264 11.9551C113.741 13.8831 113.741 15.8296 113.264 17.7576Z" fill="white"/>
<path d="M103.101 36.1785H99.7984V45.7469H103.101C105.942 45.7469 107.823 43.8327 107.823 40.9881C107.823 38.1434 105.942 36.1785 103.101 36.1785ZM103.022 44.9318H100.799V36.9912H103.022C105.284 36.9912 106.785 38.5821 106.785 40.9881C106.785 43.394 105.284 44.9318 103.022 44.9318Z" fill="white"/>
<path d="M110.849 44.9318V41.2721H115.52V40.457H110.849V36.9912H115.848V36.1785H109.848V45.7469H115.966V44.9318H110.849Z" fill="white"/>
<path d="M119.072 44.9318V36.1785H118.071V45.7469H123.676V44.9318H119.072Z" fill="white"/>
<path d="M125.189 36.1785V45.7469H126.188V36.1785H125.189Z" fill="white"/>
<path d="M135.977 36.1785L132.305 44.5693L128.635 36.1785H127.557L131.833 45.7469H132.78L137.041 36.1785H135.977Z" fill="white"/>
<path d="M139.423 44.9318V41.2721H144.094V40.457H139.423V36.9912H144.422V36.1785H138.422V45.7469H144.54V44.9318H139.423Z" fill="white"/>
<path d="M151.421 41.6738C152.711 41.2975 153.5 40.3162 153.5 39.0093C153.5 37.3029 152.21 36.1785 150.237 36.1785H146.645V45.7469H147.646V41.8401H150.408L153 45.7469H154.184L151.421 41.6738ZM150.105 41.0273H147.646V36.9912H150.105C151.527 36.9912 152.462 37.7948 152.462 39.0093C152.462 40.2238 151.513 41.0273 150.105 41.0273Z" fill="white"/>
<path d="M161.459 36.1785L158.459 40.9881L155.433 36.1785H154.341L157.947 41.8678V45.7469H158.946V41.8678L162.552 36.1785H161.459Z" fill="white"/>
<path d="M173.953 37.3399L174.164 36.1992H167.873L166.144 45.7907H172.555L172.766 44.6501H167.753L168.321 41.4891H172.832L173.041 40.3485H168.519L169.059 37.3399H173.953Z" fill="white"/>
<path d="M183.394 36.1992H181.811L178.712 39.7781L176.906 36.1992H175.256L177.723 40.8657L173.278 45.7907H174.862L178.303 41.877L180.347 45.7907H181.996L179.307 40.7872L183.394 36.1992Z" fill="white"/>
<path d="M188.643 36.1992H184.949L183.22 45.7907H184.621L185.253 42.3042H187.588C189.789 42.3042 191.478 40.7872 191.478 38.6883C191.478 37.1713 190.395 36.1992 188.643 36.1992ZM187.588 41.1635H185.45L186.136 37.3399H188.351C189.406 37.3399 190.026 37.9102 190.026 38.8061C190.026 40.1407 189.011 41.1635 187.588 41.1635Z" fill="white"/>
<path d="M200.314 38.649C200.314 37.1598 199.219 36.1992 197.424 36.1992H193.639L191.913 45.7907H193.31L193.982 42.0594H196.409L198.164 45.7907H199.771L197.833 41.8378C199.285 41.3713 200.314 40.2168 200.314 38.649ZM196.343 40.9188H194.194L194.826 37.3399H197.135C198.23 37.3399 198.862 37.8848 198.862 38.7784C198.862 39.9836 197.899 40.9188 196.343 40.9188Z" fill="white"/>
<path d="M209.107 37.3399L209.318 36.1992H203.029L201.3 45.7907H207.709L207.92 44.6501H202.91L203.476 41.4891H207.986L208.198 40.3485H203.675L204.216 37.3399H209.107Z" fill="white"/>
<path d="M214 40.3599L213.406 40.1798C212.523 39.9189 211.825 39.621 211.825 38.9076C211.825 37.9239 212.892 37.2105 214.224 37.2105C215.187 37.2105 215.924 37.4968 216.519 38.104L217.256 37.1966C216.545 36.4854 215.581 36.0698 214.264 36.0698C212.074 36.0698 210.347 37.3398 210.347 39.2193C210.347 40.4638 211.376 41.0341 212.628 41.4105L213.209 41.5791C214.369 41.9416 215.173 42.3041 215.173 43.0684C215.173 44.1074 214.012 44.7793 212.588 44.7793C211.665 44.7793 210.77 44.56 210.056 43.8465L209.424 44.7285C210.084 45.5066 211.245 45.9199 212.577 45.9199C214.804 45.9199 216.639 44.7031 216.639 42.8351C216.639 41.3851 215.267 40.7363 214 40.3599Z" fill="white"/>
<path d="M222.242 40.3599L221.647 40.1798C220.764 39.9189 220.066 39.621 220.066 38.9076C220.066 37.9239 221.135 37.2105 222.465 37.2105C223.428 37.2105 224.168 37.4968 224.76 38.104L225.5 37.1966C224.788 36.4854 223.825 36.0698 222.505 36.0698C220.315 36.0698 218.588 37.3398 218.588 39.2193C218.588 40.4638 219.617 41.0341 220.87 41.4105L221.45 41.5791C222.61 41.9416 223.416 42.3041 223.416 43.0684C223.416 44.1074 222.256 44.7793 220.83 44.7793C219.906 44.7793 219.011 44.56 218.297 43.8465L217.665 44.7285C218.325 45.5066 219.486 45.9199 220.818 45.9199C223.045 45.9199 224.88 44.7031 224.88 42.8351C224.88 41.3851 223.508 40.7363 222.242 40.3599Z" fill="white"/>
<path d="M55.2799 0.560059V29.0621H62.6566V20.131H83.0669V13.9268H62.6284V6.67656H85.4655V0.560059H55.2799Z" fill="white"/>
<path d="M122.638 0.594727V10.3155H129.85V6.72046H143.6C143.6 6.72046 148.325 6.36718 148.325 10.8905C148.325 15.4138 144.366 15.2683 144.366 15.2683H122.638V29.1776H129.866V21.4864H141.547L146.135 29.1776H154.637L149.433 20.5882C149.433 20.5882 155.551 18.8195 155.551 10.7866C155.553 0.594727 145.416 0.594727 145.416 0.594727H122.638Z" fill="white"/>
<path d="M156.693 0.594727V6.73431H178.017L156.693 22.9457V29.1776H188.544V22.9457H167.1L188.544 6.73431V0.594727H156.693Z" fill="white"/>
<path d="M190.583 29.1776H198.62L207.676 5.99775L216.975 29.1776H225.011L212.596 0.594727H202.787L190.583 29.1776Z" fill="white"/>
<path d="M53.1257 0.560059V29.009H52.7991L41.9597 29.0067C41.962 26.9125 41.9644 22.9941 41.9644 21.2139V20.8837C41.7976 20.953 41.7177 21.0915 41.6167 21.1978C38.6167 24.3126 35.0693 26.6446 31.0474 28.284C28.4961 29.3231 25.8508 30.0296 23.1163 30.406C23.0623 30.4129 23.0082 30.436 22.9565 30.4522H13.5971C12.796 30.3044 11.9926 30.1728 11.1962 30.0042C7.41621 29.2007 3.91582 27.7368 0.666797 25.6818C0.605717 25.6425 0.546985 25.5987 0.5 25.5086C0.69029 25.5479 0.88058 25.5894 1.07322 25.6264C1.27525 25.6679 1.47729 25.7072 1.67933 25.7464C3.63626 26.1228 5.60963 26.326 7.6065 26.3653C11.269 26.4368 14.8469 25.9358 18.3356 24.8436C22.8461 23.4282 26.861 21.1677 30.2745 17.9259C32.074 16.2173 33.7208 14.3747 35.1163 12.3289C35.5392 11.7078 35.8868 11.0428 36.1993 10.3571C36.0959 10.274 35.9785 10.3155 35.8728 10.3155C31.2024 10.3132 21.8641 10.3178 21.8641 10.3178H21.5399L21.5423 0.560059L53.1257 0.560059Z" fill="white"/>
</svg>
