<svg width="46" height="30" viewBox="0 0 46 30" fill="none" xmlns="http://www.w3.org/2000/svg">
<g clip-path="url(#clip0_572_1155)">
<path d="M45.4536 9.92673H0V0.783719C0 0.350933 0.350934 0 0.783719 0H44.67C45.1027 0 45.4537 0.350933 45.4537 0.783719L45.4536 9.92673Z" fill="#4173CD"/>
<path d="M44.6699 29.78H0.783719C0.350934 29.78 0 29.4291 0 28.9963V19.8534H45.4536V28.9963C45.4536 29.4292 45.1027 29.78 44.6699 29.78Z" fill="#4173CD"/>
<path d="M45.4536 9.92657H0V19.8527H45.4536V9.92657Z" fill="#F5F5F5"/>
<path d="M22.8401 13.6097L23.1206 14.4507L24.007 14.4575C24.1218 14.4584 24.1693 14.6049 24.077 14.6731L23.3639 15.1997L23.6313 16.0449C23.6658 16.1544 23.5414 16.2449 23.4479 16.1782L22.7268 15.6627L22.0055 16.1781C21.9121 16.2448 21.7876 16.1543 21.8221 16.0449L22.0895 15.1996L21.3764 14.673C21.2841 14.6048 21.3316 14.4583 21.4464 14.4574L22.3329 14.4506L22.6133 13.6096C22.6498 13.5009 22.8037 13.5009 22.8401 13.6097Z" fill="#4173CD"/>
<path d="M14.8349 15.8667L15.1153 16.7077L16.0018 16.7145C16.1166 16.7154 16.1641 16.8619 16.0718 16.9301L15.3587 17.4567L15.6261 18.302C15.6607 18.4114 15.5361 18.5019 15.4427 18.4352L14.7214 17.9198L14.0002 18.4352C13.9068 18.5019 13.7823 18.4114 13.8168 18.302L14.0842 17.4567L13.3711 16.9301C13.2788 16.8619 13.3263 16.7154 13.4411 16.7145L14.3275 16.7077L14.608 15.8667C14.6446 15.7579 14.7986 15.7579 14.8349 15.8667Z" fill="#4173CD"/>
<path d="M14.8349 11.3527L15.1153 12.1937L16.0018 12.2005C16.1166 12.2014 16.1641 12.3479 16.0718 12.416L15.3587 12.9427L15.6261 13.7879C15.6607 13.8974 15.5361 13.9878 15.4427 13.9212L14.7214 13.4057L14.0002 13.9212C13.9068 13.9878 13.7823 13.8974 13.8168 13.7879L14.0842 12.9427L13.3711 12.416C13.2788 12.3479 13.3263 12.2014 13.4411 12.2005L14.3275 12.1937L14.608 11.3527C14.6446 11.2439 14.7986 11.2439 14.8349 11.3527Z" fill="#4173CD"/>
<path d="M30.8453 15.8667L31.1257 16.7077L32.0122 16.7145C32.127 16.7154 32.1745 16.8619 32.0822 16.9301L31.3691 17.4567L31.6365 18.302C31.6711 18.4114 31.5465 18.5019 31.4531 18.4352L30.7318 17.9198L30.0106 18.4352C29.9172 18.5019 29.7927 18.4114 29.8272 18.302L30.0946 17.4567L29.3815 16.9301C29.289 16.8619 29.3367 16.7154 29.4515 16.7145L30.3379 16.7077L30.6184 15.8667C30.655 15.7579 30.809 15.7579 30.8453 15.8667Z" fill="#4173CD"/>
<path d="M30.8453 11.3527L31.1257 12.1937L32.0122 12.2005C32.127 12.2014 32.1745 12.3479 32.0822 12.416L31.3691 12.9427L31.6365 13.7879C31.6711 13.8974 31.5465 13.9878 31.4531 13.9212L30.7318 13.4057L30.0106 13.9212C29.9172 13.9878 29.7927 13.8974 29.8272 13.7879L30.0946 12.9427L29.3815 12.416C29.289 12.3479 29.3367 12.2014 29.4515 12.2005L30.3379 12.1937L30.6184 11.3527C30.655 11.2439 30.809 11.2439 30.8453 11.3527Z" fill="#4173CD"/>
</g>
<defs>
<clipPath id="clip0_572_1155">
<rect width="45.4537" height="29.78" fill="white"/>
</clipPath>
</defs>
</svg>
